<mxfile host="app.diagrams.net" agent="Mozilla/5.0 (Windows NT 10.0; Win64; x64) AppleWebKit/537.36 (KHTML, like Gecko) Chrome/135.0.0.0 Safari/537.36" version="26.2.14">
  <diagram name="Страница — 1" id="ZcDoEtynkYB_oe8wxC-U">
    <mxGraphModel dx="1042" dy="535" grid="1" gridSize="10" guides="1" tooltips="1" connect="1" arrows="1" fold="1" page="1" pageScale="1" pageWidth="827" pageHeight="1169" math="0" shadow="0">
      <root>
        <mxCell id="0" />
        <mxCell id="1" parent="0" />
        <mxCell id="LaRmLQS7ZJh0L9k7J_2K-1" value="Главная" style="rounded=0;whiteSpace=wrap;html=1;" parent="1" vertex="1">
          <mxGeometry x="374" y="30" width="90" height="30" as="geometry" />
        </mxCell>
        <mxCell id="LaRmLQS7ZJh0L9k7J_2K-2" value="Благотвори-тельность" style="rounded=0;whiteSpace=wrap;html=1;" parent="1" vertex="1">
          <mxGeometry x="560" y="100" width="90" height="30" as="geometry" />
        </mxCell>
        <mxCell id="LaRmLQS7ZJh0L9k7J_2K-3" value="О нас" style="rounded=0;whiteSpace=wrap;html=1;" parent="1" vertex="1">
          <mxGeometry x="40" y="100" width="90" height="30" as="geometry" />
        </mxCell>
        <mxCell id="LaRmLQS7ZJh0L9k7J_2K-4" value="Услуги" style="rounded=0;whiteSpace=wrap;html=1;" parent="1" vertex="1">
          <mxGeometry x="170" y="100" width="90" height="30" as="geometry" />
        </mxCell>
        <mxCell id="LaRmLQS7ZJh0L9k7J_2K-5" value="Номера" style="rounded=0;whiteSpace=wrap;html=1;" parent="1" vertex="1">
          <mxGeometry x="300" y="100" width="90" height="30" as="geometry" />
        </mxCell>
        <mxCell id="LaRmLQS7ZJh0L9k7J_2K-6" value="Статьи" style="rounded=0;whiteSpace=wrap;html=1;" parent="1" vertex="1">
          <mxGeometry x="430" y="100" width="90" height="30" as="geometry" />
        </mxCell>
        <mxCell id="LaRmLQS7ZJh0L9k7J_2K-7" value="Отзывы" style="rounded=0;whiteSpace=wrap;html=1;" parent="1" vertex="1">
          <mxGeometry x="690" y="100" width="90" height="30" as="geometry" />
        </mxCell>
        <mxCell id="2pTWfdNi9-YRNTpME1s7-1" value="Уход" style="rounded=0;whiteSpace=wrap;html=1;" vertex="1" parent="1">
          <mxGeometry x="430" y="150" width="90" height="30" as="geometry" />
        </mxCell>
        <mxCell id="2pTWfdNi9-YRNTpME1s7-2" value="Питание" style="rounded=0;whiteSpace=wrap;html=1;" vertex="1" parent="1">
          <mxGeometry x="430" y="200" width="90" height="30" as="geometry" />
        </mxCell>
        <mxCell id="2pTWfdNi9-YRNTpME1s7-3" value="Поведение" style="rounded=0;whiteSpace=wrap;html=1;" vertex="1" parent="1">
          <mxGeometry x="430" y="250" width="90" height="30" as="geometry" />
        </mxCell>
      </root>
    </mxGraphModel>
  </diagram>
</mxfile>
